<?xml version="1.0" encoding="utf-8"?>
<!-- Generator: Adobe Illustrator 16.0.0, SVG Export Plug-In . SVG Version: 6.00 Build 0)  -->
<!DOCTYPE svg PUBLIC "-//W3C//DTD SVG 1.1//EN" "http://www.w3.org/Graphics/SVG/1.1/DTD/svg11.dtd">
<svg version="1.1" id="Layer_1" xmlns="http://www.w3.org/2000/svg" xmlns:xlink="http://www.w3.org/1999/xlink" x="0px" y="0px"
	 width="1240px" height="410px" viewBox="0 0 1240 410" style="enable-background:new 0 0 1240 410;" xml:space="preserve">
<style type="text/css">
<![CDATA[
	.st0{fill:#1B4359;}
	.st1{fill:#1B435A;}
	.st2{fill:url(#SVGID_1_);}
	.st3{fill:url(#SVGID_2_);}
	.st4{fill:url(#SVGID_3_);}
	.st5{fill:url(#SVGID_4_);}
	.st6{fill:url(#SVGID_5_);}
	.st7{fill:url(#SVGID_6_);}
	.st8{fill:url(#SVGID_7_);}
	.st9{fill:url(#SVGID_8_);}
	.st10{fill:url(#SVGID_9_);}
	.st11{fill:url(#SVGID_10_);}
	.st12{fill:url(#SVGID_11_);}
	.st13{fill:url(#SVGID_12_);}
	.st14{fill:url(#SVGID_13_);}
	.st15{fill:url(#SVGID_14_);}
	.st16{fill:url(#SVGID_15_);}
]]>
</style>
<g>
	<g>
		<g>
			<linearGradient id="SVGID_1_" gradientUnits="userSpaceOnUse" x1="85.061" y1="101.7319" x2="85.061" y2="279.3088">
				<stop  offset="0" style="stop-color:#F47D20"/>
				<stop  offset="1" style="stop-color:#DF5B25"/>
			</linearGradient>
			<path class="st2" d="M87.1,251.8l33.6-228.4h40.4l-43.2,280H52.3L9.1,23.4h44.4L87.1,251.8z"/>
			<linearGradient id="SVGID_2_" gradientUnits="userSpaceOnUse" x1="222.46" y1="101.7319" x2="222.4599" y2="279.309">
				<stop  offset="0" style="stop-color:#F47D20"/>
				<stop  offset="1" style="stop-color:#DF5B25"/>
			</linearGradient>
			<path class="st3" d="M210.5,181.9h45.3v30h-45.3v61.5h57v30h-90v-210h90v30h-57V181.9z"/>
			<linearGradient id="SVGID_3_" gradientUnits="userSpaceOnUse" x1="339.1587" y1="101.7319" x2="339.1587" y2="279.309">
				<stop  offset="0" style="stop-color:#F47D20"/>
				<stop  offset="1" style="stop-color:#DF5B25"/>
			</linearGradient>
			<path class="st4" d="M356.9,303.4c-1.8-5.4-3-8.7-3-25.8v-33c0-19.5-6.6-26.7-21.6-26.7h-11.4v85.5h-33v-210h49.8
				c34.2,0,48.9,15.9,48.9,48.3v16.5c0,21.6-6.9,35.7-21.6,42.6c16.5,6.9,21.9,22.8,21.9,44.7v32.4c0,10.2,0.3,17.7,3.6,25.5H356.9z
				 M320.9,123.4v64.5h12.9c12.3,0,19.8-5.4,19.8-22.2V145c0-15-5.1-21.6-16.8-21.6H320.9z"/>
			<linearGradient id="SVGID_4_" gradientUnits="userSpaceOnUse" x1="449.8564" y1="101.7319" x2="449.8564" y2="279.309">
				<stop  offset="0" style="stop-color:#F47D20"/>
				<stop  offset="1" style="stop-color:#DF5B25"/>
			</linearGradient>
			<path class="st5" d="M398.9,93.4h102v30h-34.5v180h-33v-180h-34.5V93.4z"/>
			<linearGradient id="SVGID_5_" gradientUnits="userSpaceOnUse" x1="531.7524" y1="101.7319" x2="531.7524" y2="279.309">
				<stop  offset="0" style="stop-color:#F47D20"/>
				<stop  offset="1" style="stop-color:#DF5B25"/>
			</linearGradient>
			<path class="st6" d="M515.3,93.4h33v210h-33V93.4z"/>
			<linearGradient id="SVGID_6_" gradientUnits="userSpaceOnUse" x1="969.04" y1="101.7319" x2="969.04" y2="279.309">
				<stop  offset="0" style="stop-color:#F47D20"/>
				<stop  offset="1" style="stop-color:#DF5B25"/>
			</linearGradient>
			<path class="st7" d="M952.5,93.4h33v210h-33V93.4z"/>
			<linearGradient id="SVGID_7_" gradientUnits="userSpaceOnUse" x1="1056.0371" y1="101.7319" x2="1056.0371" y2="279.3089">
				<stop  offset="0" style="stop-color:#F47D20"/>
				<stop  offset="1" style="stop-color:#DF5B25"/>
			</linearGradient>
			<path class="st8" d="M1059,186.4h46.2V253c0,33.6-16.8,52.8-49.2,52.8s-49.2-19.2-49.2-52.8V143.8c0-33.6,16.8-52.8,49.2-52.8
				s49.2,19.2,49.2,52.8v20.4H1074v-22.5c0-15-6.6-20.7-17.1-20.7s-17.1,5.7-17.1,20.7v113.4c0,15,6.6,20.4,17.1,20.4
				s17.1-5.4,17.1-20.4v-38.7h-15V186.4z"/>
			<linearGradient id="SVGID_8_" gradientUnits="userSpaceOnUse" x1="1178.5879" y1="101.7319" x2="1178.5879" y2="279.309">
				<stop  offset="0" style="stop-color:#F47D20"/>
				<stop  offset="1" style="stop-color:#DF5B25"/>
			</linearGradient>
			<path class="st9" d="M1155.9,151.3v152.1h-29.7v-210h41.4l33.9,125.7V93.4h29.4v210H1197L1155.9,151.3z"/>
			<g>
				<linearGradient id="SVGID_9_" gradientUnits="userSpaceOnUse" x1="618.7495" y1="101.7324" x2="618.7495" y2="279.3094">
					<stop  offset="0" style="stop-color:#F47D20"/>
					<stop  offset="1" style="stop-color:#DF5B25"/>
				</linearGradient>
				<path class="st10" d="M618.7,91c-32.4,0-49.2,19.2-49.2,52.8V253c0,33.6,16.8,52.8,49.2,52.8c32.4,0,49.2-19.2,49.2-52.8v-27.9
					h-31.2v30c0,15-6.6,20.4-17.1,20.4c-10.5,0-17.1-5.4-17.1-20.4V141.7c0-15,6.6-20.7,17.1-20.7c3.4,0,6.3,0.6,8.8,1.9l34.4-6.8
					C655.6,99.9,640.8,91,618.7,91z"/>
				<linearGradient id="SVGID_10_" gradientUnits="userSpaceOnUse" x1="649.7842" y1="101.7324" x2="649.7842" y2="279.3091">
					<stop  offset="0" style="stop-color:#F47D20"/>
					<stop  offset="1" style="stop-color:#DF5B25"/>
				</linearGradient>
				<path class="st11" d="M636.7,141.7v22.5H668v-20.4c0-7.8-0.9-14.8-2.7-21l-33.6,2.5C634.9,128.5,636.7,133.8,636.7,141.7z"/>
				<linearGradient id="SVGID_11_" gradientUnits="userSpaceOnUse" x1="712.4326" y1="101.7324" x2="712.4326" y2="279.3094">
					<stop  offset="0" style="stop-color:#F47D20"/>
					<stop  offset="1" style="stop-color:#DF5B25"/>
				</linearGradient>
				<path class="st12" d="M736.3,298.8C736.3,298.8,736.3,298.8,736.3,298.8c10.3,1.3,8.5-5.7,8.5-5.7c0,0,0,0,0,0v-8
					c0-5.1-0.4-10.1-1.1-15.1c-3.7-24.7-4.2-48.7-4-64.5c0.1-8.3,0.9-16.6,2.5-24.8c3.3-16.1,1.7-43.5,0.7-56
					c-0.3-3.7-3.4-6.5-7.1-6.5l-8.6,0.1c-2.1,0-4.2,0.1-6.3,0.3l-11.4,0.8L680,303.4h40.4h15.9C732.8,302.6,736.1,298.9,736.3,298.8
					z"/>
				<linearGradient id="SVGID_12_" gradientUnits="userSpaceOnUse" x1="756.9766" y1="101.7324" x2="756.9766" y2="279.3089">
					<stop  offset="0" style="stop-color:#F47D20"/>
					<stop  offset="1" style="stop-color:#DF5B25"/>
				</linearGradient>
				<path class="st13" d="M745,104c2.8,0,5.3-1.2,7-3.2v-7.7c-5.1-2.8-8.6-8.6-8.6-15.4c0-9.5,6.9-17.2,15.5-17.2
					s15.5,7.7,15.5,17.2c0,6.7-3.5,12.6-8.6,15.4v7.8c1.6,1.9,4,3.1,6.7,3.1h0c11.5,0,16,0.7,30.2,2.9l-13.4-83.5h-64.4l-13.4,83.7
					C722.1,105.8,733.8,104,745,104L745,104z"/>
				<linearGradient id="SVGID_13_" gradientUnits="userSpaceOnUse" x1="758.9463" y1="101.7334" x2="758.9463" y2="279.3101">
					<stop  offset="0" style="stop-color:#F47D20"/>
					<stop  offset="1" style="stop-color:#DF5B25"/>
				</linearGradient>
				<path class="st14" d="M759.4,211.4c0-0.5-0.8-0.5-0.8,0l-4.2,92c0,0,0,0,0,0h9.4c0,0,0,0,0,0L759.4,211.4z"/>
				<linearGradient id="SVGID_14_" gradientUnits="userSpaceOnUse" x1="803.4971" y1="101.7324" x2="803.4971" y2="279.3095">
					<stop  offset="0" style="stop-color:#F47D20"/>
					<stop  offset="1" style="stop-color:#DF5B25"/>
				</linearGradient>
				<path class="st15" d="M782.9,118.3c-4.1-0.1-7.6,3.1-7.9,7.2c-1,12.8-2.4,39.5,0.8,55.2c1.3,6.4,2.2,13,2.4,19.5
					c0.4,15,0.3,40.7-3.6,67.7c-0.9,6.3-1.4,12.7-1.4,19.1v6c0,0,0,0,0,0c0,0.1-1.9,7.1,8.4,5.7c0,0,0,0,0,0c0.1,0.2,3.5,3.8,0,4.6
					h8H834l-29.5-184.2l-10.6-0.7L782.9,118.3z"/>
				<linearGradient id="SVGID_15_" gradientUnits="userSpaceOnUse" x1="894.4951" y1="101.7314" x2="894.4951" y2="279.3085">
					<stop  offset="0" style="stop-color:#F47D20"/>
					<stop  offset="1" style="stop-color:#DF5B25"/>
				</linearGradient>
				<path class="st16" d="M883.8,273.4v-180h-33v23.7l30.3,7c0,0,0,0.1,0,0.1l-30.3-2v181.2h87.3v-30H883.8z"/>
			</g>
		</g>
	</g>
	<g>
		<g>
			<rect x="1142.6" y="353.2" class="st0" width="88.3" height="5.6"/>
			<rect x="49.1" y="353.2" class="st0" width="88.3" height="5.6"/>
		</g>
		<g>
			<g>
				<path class="st1" d="M169.4,359v17h-9.2v-45.9h16.7c5.4,0,9.5,1.3,12.3,3.9c2.8,2.6,4.1,6.1,4.1,10.6c0,4.4-1.4,7.9-4.3,10.5
					c-2.8,2.6-6.9,3.9-12.1,3.9H169.4z M184,344.6c0-2.3-0.6-4.1-1.9-5.3c-1.3-1.2-3.3-1.8-6.2-1.8h-6.6v14.1h6.6
					C181.3,351.7,184,349.3,184,344.6z"/>
				<path class="st1" d="M241.6,332.5c3.5,2,6.2,4.8,8.3,8.4c2,3.6,3,7.6,3,12.1c0,4.5-1,8.6-3,12.2c-2,3.6-4.8,6.4-8.3,8.4
					c-3.5,2-7.4,3-11.7,3s-8.2-1-11.7-3c-3.5-2-6.2-4.8-8.3-8.4c-2-3.6-3-7.6-3-12.2c0-4.5,1-8.5,3-12.1s4.8-6.4,8.3-8.4
					c3.5-2,7.4-3,11.7-3S238.1,330.5,241.6,332.5z M222.8,339.8c-2,1.2-3.6,3-4.8,5.2c-1.1,2.3-1.7,4.9-1.7,8c0,3,0.6,5.7,1.7,8
					c1.1,2.3,2.7,4,4.8,5.2c2,1.2,4.4,1.8,7.1,1.8c2.7,0,5-0.6,7.1-1.8c2-1.2,3.6-3,4.8-5.2c1.1-2.3,1.7-4.9,1.7-8
					c0-3-0.6-5.7-1.7-8c-1.1-2.3-2.7-4-4.8-5.2c-2-1.2-4.4-1.8-7.1-1.8C227.2,337.9,224.9,338.5,222.8,339.8z"/>
				<path class="st1" d="M298.6,370c-1.2,2-2.9,3.6-5.2,4.7c-2.3,1.2-5.1,1.8-8.4,1.8c-3.3,0-6.2-0.6-8.7-1.7
					c-2.6-1.1-4.6-2.7-6.1-4.8c-1.5-2.1-2.4-4.5-2.6-7.3h9.8c0.2,1.9,1,3.4,2.2,4.6c1.3,1.2,3,1.9,5.1,1.9c1.9,0,3.4-0.5,4.4-1.5
					c1-1,1.5-2.3,1.5-3.9c0-1.4-0.4-2.6-1.2-3.5c-0.8-0.9-1.9-1.7-3.1-2.2c-1.3-0.6-3-1.2-5.2-2c-2.9-1-5.2-1.9-7-2.8
					c-1.8-0.9-3.4-2.3-4.6-4.1c-1.3-1.8-1.9-4.1-1.9-7c0-3.9,1.4-7.1,4.3-9.3c2.8-2.3,6.6-3.4,11.3-3.4c4.9,0,8.7,1.2,11.6,3.5
					c2.9,2.3,4.5,5.5,4.9,9.4h-9.9c-0.3-1.6-1-3-2.1-4.1c-1.1-1.1-2.7-1.6-4.6-1.6c-1.7,0-3.1,0.4-4.1,1.3c-1,0.9-1.6,2.2-1.6,3.9
					c0,1.3,0.4,2.5,1.2,3.3c0.8,0.9,1.8,1.6,3.1,2.2c1.2,0.6,2.9,1.2,5,1.9c2.9,1,5.3,2,7.2,2.9c1.8,0.9,3.4,2.3,4.7,4.1
					c1.3,1.8,2,4.2,2,7.2C300.4,365.8,299.8,368,298.6,370z"/>
				<path class="st1" d="M347.4,330.1v7.3h-12.7V376h-9.2v-38.6H313v-7.3H347.4z"/>
				<path class="st1" d="M370.4,330.1V357c0,3.6,0.8,6.3,2.4,8.1c1.6,1.8,3.9,2.7,6.9,2.7c2.9,0,5.2-0.9,6.8-2.7
					c1.6-1.8,2.4-4.5,2.4-8.1v-26.9h9.1V357c0,4.2-0.8,7.8-2.4,10.8c-1.6,2.9-3.8,5.1-6.6,6.5c-2.8,1.4-6,2.1-9.5,2.1
					c-5.5,0-9.9-1.6-13.2-4.9c-3.3-3.3-4.9-8.1-4.9-14.5v-26.9H370.4z"/>
				<path class="st1" d="M439,376l-10.7-17.9h-4V376h-9.2v-45.9h17.5c5.3,0,9.4,1.3,12.2,3.9c2.8,2.6,4.2,6,4.2,10.3
					c0,3.5-1,6.4-2.9,8.7c-1.9,2.3-4.7,3.9-8.4,4.7l11.4,18.3H439z M424.2,351.8h7.5c5.2,0,7.9-2.3,7.9-7c0-2.2-0.6-3.9-1.9-5.2
					c-1.3-1.2-3.3-1.9-5.9-1.9h-7.5V351.8z"/>
				<path class="st1" d="M473.4,337.4v11.9h16.3v7h-16.3v12.4h18.2v7.3h-27.4v-45.9h27.4v7.3H473.4z"/>
				<path class="st1" d="M528.5,363.6c0-2.5,0.7-4.7,2.2-6.6c1.4-1.9,3.6-3.8,6.5-5.7c-1.5-2-2.7-3.8-3.5-5.5
					c-0.8-1.6-1.1-3.3-1.1-5c0-3.6,1.1-6.5,3.3-8.6c2.2-2.1,5.1-3.1,8.8-3.1c3.4,0,6.1,1,8.2,3c2.1,2,3.2,4.5,3.2,7.3
					c0,2.1-0.5,3.9-1.6,5.5c-1.1,1.6-2.6,3.2-4.6,4.6l-3.2,2.3l9.7,11.5c0.8-1.3,1.5-2.8,2-4.4c0.5-1.6,0.7-3.3,0.7-5h6.3
					c0,2.9-0.4,5.6-1.2,8c-0.8,2.4-1.9,4.6-3.5,6.5l6.2,7.4l-0.1,0.2H558l-2.6-3c-1.7,1.2-3.6,2.1-5.6,2.7s-4.1,0.9-6.3,0.9
					c-4.6,0-8.3-1.2-11-3.6C529.9,370.6,528.5,367.4,528.5,363.6z M543.8,370.5c1.3,0,2.6-0.2,3.9-0.6c1.3-0.4,2.5-0.9,3.7-1.7
					L541,356l-1,0.7c-1.5,1.2-2.5,2.3-3,3.4c-0.5,1.1-0.8,2.2-0.8,3.2c0,2.1,0.7,3.8,2,5.2C539.6,369.8,541.4,370.5,543.8,370.5z
					 M539.8,340.7c0,1,0.3,2.1,0.8,3.1c0.5,1.1,1.3,2.3,2.3,3.6l3.6-2.4c1.2-0.8,2-1.6,2.4-2.5c0.4-0.9,0.6-1.8,0.6-2.8
					c0-1.1-0.4-2.2-1.3-3.1c-0.9-0.9-2.1-1.3-3.5-1.3c-1.6,0-2.8,0.5-3.6,1.6C540.2,337.9,539.8,339.2,539.8,340.7z"/>
				<path class="st1" d="M613.8,337.4v11.9H630v7h-16.3v12.4H632v7.3h-27.4v-45.9H632v7.3H613.8z"/>
				<path class="st1" d="M671.8,376l-10.7-17.9h-4V376h-9.2v-45.9h17.5c5.3,0,9.4,1.3,12.2,3.9c2.8,2.6,4.2,6,4.2,10.3
					c0,3.5-1,6.4-2.9,8.7s-4.7,3.9-8.4,4.7l11.4,18.3H671.8z M657,351.8h7.5c5.2,0,7.9-2.3,7.9-7c0-2.2-0.6-3.9-1.9-5.2
					c-1.3-1.2-3.3-1.9-5.9-1.9H657V351.8z"/>
				<path class="st1" d="M732.2,333.8c3.7,2.8,6,6.5,7.1,11.1h-9.6c-0.9-2.1-2.4-3.7-4.3-5c-2-1.2-4.3-1.9-7-1.9c-2.6,0-5,0.6-7,1.8
					c-2,1.2-3.6,2.9-4.7,5.2c-1.1,2.3-1.7,4.9-1.7,7.9c0,4.8,1.3,8.6,3.9,11.2c2.6,2.7,6.1,4,10.6,4c3.3,0,6.1-1,8.5-2.9
					c2.4-2,3.9-4.7,4.6-8.1h-15.5v-6.6H740v8.8c-0.7,3-1.9,5.8-3.8,8.4s-4.4,4.6-7.4,6.1c-3.1,1.5-6.6,2.3-10.5,2.3
					c-4.5,0-8.5-1-11.9-3c-3.4-2-6.1-4.7-8-8.3c-1.9-3.5-2.8-7.6-2.8-12.1c0-4.5,0.9-8.6,2.8-12.1c1.9-3.5,4.5-6.3,8-8.3
					c3.4-2,7.4-3,11.9-3C723.8,329.7,728.5,331.1,732.2,333.8z"/>
				<path class="st1" d="M789.2,332.5c3.5,2,6.2,4.8,8.3,8.4c2,3.6,3,7.6,3,12.1c0,4.5-1,8.6-3,12.2c-2,3.6-4.8,6.4-8.3,8.4
					c-3.5,2-7.4,3-11.7,3c-4.3,0-8.2-1-11.7-3c-3.5-2-6.2-4.8-8.3-8.4c-2-3.6-3-7.6-3-12.2c0-4.5,1-8.5,3-12.1s4.8-6.4,8.3-8.4
					c3.5-2,7.4-3,11.7-3C781.8,329.5,785.7,330.5,789.2,332.5z M770.4,339.8c-2,1.2-3.6,3-4.8,5.2c-1.1,2.3-1.7,4.9-1.7,8
					c0,3,0.6,5.7,1.7,8c1.1,2.3,2.7,4,4.8,5.2c2,1.2,4.4,1.8,7.1,1.8s5-0.6,7.1-1.8c2-1.2,3.6-3,4.8-5.2c1.1-2.3,1.7-4.9,1.7-8
					c0-3-0.6-5.7-1.7-8c-1.1-2.3-2.7-4-4.8-5.2c-2-1.2-4.4-1.8-7.1-1.8S772.5,338.5,770.4,339.8z"/>
				<path class="st1" d="M855.3,376h-9.2l-20.5-31.2V376h-9.2v-45.9h9.2l20.5,31.5v-31.5h9.2V376z"/>
				<path class="st1" d="M905.9,332.5c3.5,2,6.2,4.8,8.3,8.4s3,7.6,3,12.1c0,4.5-1,8.6-3,12.2c-2,3.6-4.8,6.4-8.3,8.4
					c-3.5,2-7.4,3-11.7,3c-4.3,0-8.2-1-11.7-3c-3.5-2-6.2-4.8-8.3-8.4c-2-3.6-3-7.6-3-12.2c0-4.5,1-8.5,3-12.1
					c2-3.6,4.8-6.4,8.3-8.4s7.4-3,11.7-3C898.6,329.5,902.4,330.5,905.9,332.5z M887.2,339.8c-2,1.2-3.6,3-4.8,5.2
					c-1.1,2.3-1.7,4.9-1.7,8c0,3,0.6,5.7,1.7,8c1.1,2.3,2.7,4,4.8,5.2c2,1.2,4.4,1.8,7.1,1.8c2.7,0,5-0.6,7.1-1.8
					c2-1.2,3.6-3,4.8-5.2c1.1-2.3,1.7-4.9,1.7-8c0-3-0.6-5.7-1.7-8c-1.1-2.3-2.7-4-4.8-5.2s-4.4-1.8-7.1-1.8
					C891.6,337.9,889.2,338.5,887.2,339.8z"/>
				<path class="st1" d="M982.7,330.7V376h-9.1v-31.7L961.9,376H954l-11.6-31.5V376h-9.2v-45.4h11.1l13.8,34.1l13.5-34.1H982.7z"/>
				<path class="st1" d="M1009.3,330.1V376h-9.2v-45.9H1009.3z"/>
				<path class="st1" d="M1061.6,334.1c3.8,2.9,6.3,7,7.5,12h-9.6c-1-2.5-2.5-4.4-4.6-5.8c-2.1-1.4-4.6-2.1-7.6-2.1
					c-2.4,0-4.6,0.6-6.6,1.8c-1.9,1.2-3.5,2.9-4.5,5.2c-1.1,2.3-1.6,4.9-1.6,7.9c0,3,0.5,5.6,1.6,7.9c1.1,2.3,2.6,4,4.5,5.2
					c2,1.2,4.1,1.8,6.6,1.8c2.9,0,5.5-0.7,7.6-2.1c2.1-1.4,3.6-3.4,4.6-5.8h9.6c-1.2,5.1-3.7,9.1-7.5,12c-3.8,2.9-8.5,4.4-14.2,4.4
					c-4.4,0-8.2-1-11.6-3c-3.4-2-6-4.7-7.8-8.3c-1.8-3.6-2.8-7.6-2.8-12.1c0-4.5,0.9-8.6,2.8-12.2c1.8-3.6,4.4-6.3,7.8-8.3
					c3.3-2,7.2-3,11.6-3C1053.1,329.7,1057.9,331.2,1061.6,334.1z"/>
				<path class="st1" d="M1114.9,370c-1.2,2-2.9,3.6-5.2,4.7c-2.3,1.2-5.1,1.8-8.4,1.8c-3.3,0-6.2-0.6-8.7-1.7
					c-2.6-1.1-4.6-2.7-6.1-4.8c-1.5-2.1-2.4-4.5-2.6-7.3h9.8c0.2,1.9,1,3.4,2.2,4.6c1.3,1.2,3,1.9,5.1,1.9c1.9,0,3.4-0.5,4.4-1.5
					c1-1,1.5-2.3,1.5-3.9c0-1.4-0.4-2.6-1.2-3.5c-0.8-0.9-1.9-1.7-3.1-2.2c-1.3-0.6-3-1.2-5.2-2c-2.9-1-5.2-1.9-7-2.8
					s-3.4-2.3-4.6-4.1c-1.3-1.8-1.9-4.1-1.9-7c0-3.9,1.4-7.1,4.3-9.3c2.8-2.3,6.6-3.4,11.3-3.4c4.9,0,8.7,1.2,11.6,3.5
					c2.9,2.3,4.5,5.5,4.9,9.4h-9.9c-0.3-1.6-1-3-2.1-4.1c-1.1-1.1-2.7-1.6-4.6-1.6c-1.7,0-3.1,0.4-4.1,1.3c-1,0.9-1.6,2.2-1.6,3.9
					c0,1.3,0.4,2.5,1.2,3.3c0.8,0.9,1.8,1.6,3.1,2.2c1.2,0.6,2.9,1.2,5,1.9c2.9,1,5.3,2,7.2,2.9s3.4,2.3,4.7,4.1
					c1.3,1.8,1.9,4.2,1.9,7.2C1116.6,365.8,1116,368,1114.9,370z"/>
			</g>
		</g>
	</g>
</g>
</svg>
