<?xml version="1.0" encoding="utf-8"?>
<!-- Generator: Adobe Illustrator 23.0.2, SVG Export Plug-In . SVG Version: 6.00 Build 0)  -->
<svg version="1.1" id="Layer_1" xmlns="http://www.w3.org/2000/svg" xmlns:xlink="http://www.w3.org/1999/xlink" x="0px" y="0px"
	 viewBox="0 0 60.1 39.8" style="enable-background:new 0 0 60.1 39.8;" xml:space="preserve">
<style type="text/css">
	.st0{fill:#FF712C;}
</style>
<g>
	<g>
		<g>
			<path class="st0" d="M45.7,39.7H32l6.8-16.4c-3-2.4-4.6-5.9-4.6-10c0-7.6,5.5-13.2,13-13.2c6.1,0,12.7,4.1,12.7,13.2
				c0,3.7-1.1,7-3.5,10.3L45.7,39.7z M34.9,37.8h9.8l10.2-15.4c2.1-2.9,3.1-5.9,3.1-9.2C58,5.6,52.4,2,47.2,2
				c-6.4,0-11.1,4.7-11.1,11.2c0,3.8,1.5,6.8,4.4,8.9l0.6,0.4L34.9,37.8z"/>
		</g>
		<g>
			<path class="st0" d="M13.8,39.7H0.2L7,23.3c-3-2.4-4.6-5.9-4.6-10c0-7.6,5.5-13.2,13-13.2C21.5,0.1,28,4.2,28,13.3
				c0,3.7-1.1,7-3.5,10.3L13.8,39.7z M3.1,37.8h9.8L23,22.4c2.1-2.9,3.1-5.9,3.1-9.2C26.1,5.6,20.5,2,15.4,2C8.9,2,4.3,6.8,4.3,13.3
				c0,3.8,1.5,6.8,4.4,8.9l0.6,0.4L3.1,37.8z"/>
		</g>
	</g>
</g>
</svg>
