<?xml version="1.0" encoding="utf-8"?>
<!-- Generator: Adobe Illustrator 23.0.2, SVG Export Plug-In . SVG Version: 6.00 Build 0)  -->
<svg version="1.1" id="Layer_1" xmlns="http://www.w3.org/2000/svg" xmlns:xlink="http://www.w3.org/1999/xlink" x="0px" y="0px"
	 viewBox="0 0 17.7 15.8" style="enable-background:new 0 0 17.7 15.8;" xml:space="preserve">
<style type="text/css">
	.st0{fill-rule:evenodd;clip-rule:evenodd;fill:#FF712C;}
</style>
<g>
	<path class="st0" d="M0.1,2.3c0.2-0.4,0.5-0.7,1-0.7c3.5,0,7,0,10.6,0c0.1,0,0.1,0,0.3,0c-0.6,0.6-1.1,1.1-1.7,1.6
		C10.2,3.3,10,3.3,9.8,3.3c-2.5,0-5,0-7.5,0c-0.2,0-0.3,0-0.5,0c0,3.6,0,7.1,0,10.6c3.5,0,7,0,10.6,0c0-0.4,0-0.8,0-1.2c0-1,0-2,0-3
		c0-0.1,0-0.3,0.1-0.4c0.5-0.5,1-1,1.6-1.6c0,0.2,0,0.3,0,0.4c0,2.2,0,4.4,0,6.5c0,0.7-0.3,1-1,1c-4,0-8,0-12,0
		c-0.5,0-0.9-0.2-1.1-0.7C0.1,10.7,0.1,6.5,0.1,2.3z"/>
	<path class="st0" d="M17.6,1.7c-0.2,0.3-0.4,0.7-0.7,1c-2.7,2.7-5.4,5.4-8.1,8.1c-0.8,0.8-1.5,0.8-2.2,0C5.7,9.9,4.9,9.1,4,8.2
		C3.4,7.6,3.4,6.8,4,6.2c0.5-0.5,1.4-0.5,2,0.1c0.6,0.6,1.1,1.2,1.8,1.8C7.8,8,7.9,7.9,8,7.8c2.4-2.4,4.8-4.8,7.2-7.2
		C16-0.2,17.1,0,17.5,1.1c0,0,0,0.1,0.1,0.1C17.6,1.3,17.6,1.5,17.6,1.7z"/>
</g>
</svg>
